<?xml version="1.0" standalone="no"?>
<svg xmlns:xlink="http://www.w3.org/1999/xlink" id="wave" style="transform:rotate(180deg); transition: 0.3s" viewBox="0 0 1440 120" version="1.1" xmlns="http://www.w3.org/2000/svg"><defs><linearGradient id="sw-gradient-0" x1="0" x2="0" y1="1" y2="0"><stop stop-color="rgba(242, 230, 223, 1)" offset="0%"/><stop stop-color="rgba(242, 230, 223, 1)" offset="100%"/></linearGradient></defs><path style="transform:translate(0, 0px); opacity:1" fill="url(#sw-gradient-0)" d="M0,84L40,70C80,56,160,28,240,24C320,20,400,40,480,42C560,44,640,28,720,18C800,8,880,4,960,18C1040,32,1120,64,1200,72C1280,80,1360,64,1440,56C1520,48,1600,48,1680,54C1760,60,1840,72,1920,78C2000,84,2080,84,2160,76C2240,68,2320,52,2400,56C2480,60,2560,84,2640,80C2720,76,2800,44,2880,40C2960,36,3040,60,3120,60C3200,60,3280,36,3360,26C3440,16,3520,20,3600,22C3680,24,3760,24,3840,28C3920,32,4000,40,4080,44C4160,48,4240,48,4320,40C4400,32,4480,16,4560,20C4640,24,4720,48,4800,56C4880,64,4960,56,5040,58C5120,60,5200,72,5280,68C5360,64,5440,44,5520,32C5600,20,5680,16,5720,14L5760,12L5760,120L5720,120C5680,120,5600,120,5520,120C5440,120,5360,120,5280,120C5200,120,5120,120,5040,120C4960,120,4880,120,4800,120C4720,120,4640,120,4560,120C4480,120,4400,120,4320,120C4240,120,4160,120,4080,120C4000,120,3920,120,3840,120C3760,120,3680,120,3600,120C3520,120,3440,120,3360,120C3280,120,3200,120,3120,120C3040,120,2960,120,2880,120C2800,120,2720,120,2640,120C2560,120,2480,120,2400,120C2320,120,2240,120,2160,120C2080,120,2000,120,1920,120C1840,120,1760,120,1680,120C1600,120,1520,120,1440,120C1360,120,1280,120,1200,120C1120,120,1040,120,960,120C880,120,800,120,720,120C640,120,560,120,480,120C400,120,320,120,240,120C160,120,80,120,40,120L0,120Z"/></svg>